<svg xmlns="http://www.w3.org/2000/svg" xmlns:xlink="http://www.w3.org/1999/xlink" version="1.1" x="0px" y="0px" viewBox="-449 451 100 125" enable-background="new -449 451 100 100" xml:space="preserve"><g><path d="M-405.44,456.871c-2.608,0-4.938,1.4-6.177,3.64c-0.41-0.041-0.8-0.061-1.18-0.061c-5.946,0-11.203,4.025-12.809,9.684   c-3.248,0.8-5.603,3.724-5.603,7.126c0,0.081,0.002,0.161,0.006,0.239c-4.739,2.889-7.648,8.03-7.648,13.616   c0,4.222,1.679,8.25,4.644,11.232c-1.67,2.189-2.577,4.854-2.577,7.623c0,3.612,1.579,7.065,4.275,9.45   c-0.796,1.419-1.212,3.005-1.212,4.646c0,3.652,2.035,6.912,5.252,8.527c0.23,5.73,4.963,10.321,10.748,10.321   c0.755,0,1.507-0.08,2.246-0.237c1.301,1.549,3.207,2.45,5.255,2.45c2.057,0,3.964-0.907,5.264-2.467   c1.179,0.282,2.303,0.344,3.66,0.12l1.046-0.173V459.13l-0.403-0.371C-401.972,457.542-403.673,456.871-405.44,456.871z    M-410.319,528.391l-0.547-24.026c2.028-0.482,3.624-2.082,4.097-4.113h4.021v28.316l-4.704,2.131   C-408.112,529.634-409.121,528.813-410.319,528.391z M-421.113,495.267l3.615,2.427c-0.103,0.42-0.163,0.856-0.163,1.308   c0,1.8,0.871,3.397,2.209,4.405l-4.728,12.874c-0.35-0.16-0.717-0.286-1.102-0.371l-1.22-20.095   C-422.01,495.694-421.543,495.51-421.113,495.267z M-408.413,477.072l5.665-1.766v8.934l-6.746,9.919   c-0.475-0.26-0.991-0.454-1.537-0.565l-1.494-11.314C-410.197,481.667-408.468,479.575-408.413,477.072z M-416.947,521.301   c0-1.277-0.439-2.451-1.169-3.387l4.764-12.971l0.527,23.179c-0.941,0.117-1.808,0.473-2.542,1.004l-3.203-3.922   C-417.568,524.205-416.947,522.824-416.947,521.301z M-402.749,497.751h-4.021c-0.162-0.694-0.453-1.338-0.849-1.905l4.87-7.161   V497.751z M-405.44,459.371c0.967,0,1.905,0.314,2.692,0.894v12.423l-6.184,1.927c-0.549-1.17-1.495-2.115-2.665-2.663l1.922-9.703   C-408.97,460.5-407.318,459.371-405.44,459.371z M-412.797,462.95c0.138,0,0.287,0.013,0.431,0.02l-1.677,8.465   c-0.877,0.019-1.705,0.241-2.437,0.625l-4.374-5.486C-418.848,464.337-415.941,462.95-412.797,462.95z M-423.553,472.347   l0.188-0.868c0.212-0.983,0.562-1.909,1.02-2.767l3.972,4.981c-0.671,0.914-1.073,2.038-1.073,3.256c0,2.662,1.896,4.89,4.41,5.405   l1.495,11.314c-1.115,0.293-2.094,0.923-2.816,1.78l-2.87-1.927c0.586-0.876,0.929-1.927,0.929-3.058   c0-2.888-2.229-5.261-5.055-5.498l-1.991-12.305c0.292-0.095,0.596-0.166,0.911-0.205L-423.553,472.347z M-429.272,479.273   l0.77-0.455l-0.132-0.871c-0.034-0.226-0.073-0.453-0.073-0.688c0-1.138,0.412-2.185,1.086-3.019l1.793,11.085   c-1.299,0.511-2.356,1.499-2.959,2.749l-6.899-1.114C-434.634,483.721-432.374,480.944-429.272,479.273z M-434.283,509.971   c0-2.553,0.963-4.995,2.713-6.876l0.884-0.951l-0.983-0.847c-2.975-2.564-4.681-6.275-4.681-10.181c0-0.577,0.041-1.147,0.112-1.71   l6.902,1.115c0.026,2.61,1.874,4.791,4.332,5.33l1.22,20.096c-2.408,0.593-4.202,2.766-4.202,5.355   c0,0.837,0.193,1.627,0.528,2.339l-3.471,2.424c-0.187-0.637-0.292-1.306-0.292-1.996c0-1.506,0.476-2.949,1.377-4.174l0.744-1.011   l-1.014-0.74C-432.724,516.236-434.283,513.182-434.283,509.971z M-425.977,532.158l0.053-1.205l-0.826-0.326   c-1.243-0.49-2.271-1.305-3.035-2.313l3.876-2.708c0.945,0.757,2.141,1.212,3.442,1.212c0.612,0,1.198-0.104,1.749-0.288   l3.688,4.514c-0.401,0.765-0.63,1.632-0.63,2.554c0,1.831,0.9,3.452,2.277,4.457l-0.592,2.153   c-0.575,0.124-1.157,0.209-1.745,0.209C-422.272,540.416-425.977,536.712-425.977,532.158z M-405.04,540.036l-0.941-0.325   l-0.527,0.845c-0.811,1.298-2.198,2.073-3.71,2.073c-1.324,0-2.555-0.596-3.386-1.615l0.545-1.981   c0.299,0.051,0.604,0.083,0.917,0.083c3.044,0,5.52-2.476,5.52-5.519c0-0.175-0.01-0.348-0.026-0.519l3.9-1.767v9.104   C-403.532,540.424-404.288,540.296-405.04,540.036z"/><path d="M-361.217,509.971c0-2.77-0.907-5.434-2.577-7.623c2.966-2.982,4.645-7.011,4.645-11.232   c0-5.586-2.909-10.727-7.647-13.616c0.004-0.078,0.006-0.158,0.006-0.239c0-3.402-2.354-6.326-5.603-7.126   c-1.607-5.66-6.865-9.685-12.811-9.685c-0.379,0-0.769,0.02-1.179,0.061c-1.237-2.24-3.567-3.64-6.177-3.64   c-1.768,0-3.468,0.67-4.789,1.889l-0.403,0.37v83.479l1.046,0.173c1.355,0.223,2.482,0.162,3.66-0.119   c1.3,1.559,3.207,2.466,5.264,2.466c2.049,0,3.955-0.901,5.256-2.45c0.739,0.157,1.491,0.237,2.246,0.237   c5.786,0,10.52-4.591,10.749-10.322c3.218-1.615,5.252-4.874,5.252-8.526c0-1.644-0.416-3.229-1.213-4.646   C-362.796,517.036-361.217,513.584-361.217,509.971z M-366.43,503.095c1.62,1.743,2.557,3.969,2.687,6.316l-18.501,1.978   c-0.313-1.216-1.028-2.27-1.999-3.012l4.332-8.189c2.281-0.327,4.114-2.047,4.604-4.271l13.034-0.8   c-0.743,2.368-2.128,4.518-4.058,6.181l-0.983,0.847L-366.43,503.095z M-394.054,477.31c0.187,2.874,2.58,5.157,5.502,5.157   c0.327,0,0.646-0.034,0.957-0.089l3.339,8.142c-1.1,0.931-1.828,2.283-1.94,3.804l-9.056,0.701v-19.84L-394.054,477.31z    M-387.586,507.24c-1.056,0-2.04,0.303-2.879,0.819l-4.787-6.471v-4.057l9.441-0.73c0.585,1.438,1.759,2.57,3.221,3.106   l-3.934,7.437C-386.868,507.277-387.223,507.24-387.586,507.24z M-392.26,509.837c-0.532,0.85-0.846,1.85-0.846,2.924   c0,0.333,0.034,0.657,0.092,0.974l-2.238,0.806v-8.748L-392.26,509.837z M-361.73,492.578l-13.612,0.836   c-0.593-2.408-2.765-4.202-5.354-4.202c-0.458,0-0.9,0.063-1.326,0.168l-3.274-7.984c0.782-0.574,1.41-1.346,1.804-2.245   l20.176,5.492c1.072,1.949,1.668,4.164,1.668,6.473C-361.649,491.606-361.677,492.095-361.73,492.578z M-374.633,471.479   l0.188,0.868l0.881,0.109c2.437,0.301,4.273,2.367,4.273,4.804c0,0.212-0.037,0.455-0.078,0.723l-0.134,0.872l0.776,0.418   c1.066,0.575,2.032,1.282,2.886,2.091l-17.205-4.683c-0.058-1.201-0.496-2.302-1.204-3.183l6.028-7.963   C-376.449,467.039-375.146,469.099-374.633,471.479z M-392.56,459.371c1.903,0,3.578,1.157,4.267,2.946l0.364,0.946l1.001-0.161   c0.636-0.102,1.2-0.152,1.724-0.152c1.745,0,3.412,0.435,4.898,1.197l-5.911,7.808c-0.71-0.333-1.5-0.525-2.335-0.525   c-1.901,0-3.582,0.967-4.575,2.435l-2.125-3.769v-9.83C-394.465,459.685-393.526,459.371-392.56,459.371z M-395.252,540.416   v-23.219l3.231-1.164c1.007,1.359,2.616,2.246,4.435,2.246c0.679,0,1.327-0.129,1.929-0.354l3.284,4.879   c-0.986,0.998-1.598,2.368-1.598,3.88c0,1.402,0.53,2.681,1.396,3.655l-10.598,9.75   C-393.858,540.3-394.557,540.406-395.252,540.416z M-371.251,530.627l-0.825,0.326l0.054,1.205c0,4.554-3.704,8.258-8.258,8.258   c-0.808,0-1.612-0.119-2.391-0.354l-0.907-0.274l-0.509,0.8c-0.813,1.278-2.194,2.041-3.695,2.041c-1.168,0-2.259-0.467-3.07-1.276   l10.372-9.543c0.629,0.25,1.313,0.392,2.029,0.392c3.044,0,5.521-2.476,5.521-5.518c0-0.099-0.01-0.195-0.015-0.293l6.16-2.252   C-366.813,527.023-368.557,529.564-371.251,530.627z M-367.888,518.143l-1.016,0.74l0.746,1.012c0.399,0.541,0.7,1.131,0.929,1.746   l-6.412,2.343c-0.947-1.682-2.747-2.821-4.811-2.821c-0.633,0-1.238,0.112-1.805,0.309l-3.318-4.929   c0.685-0.726,1.178-1.633,1.391-2.645l18.253-1.951C-364.428,514.402-365.82,516.635-367.888,518.143z"/></g><text x="-449" y="566" fill="#000000" font-size="5px" font-weight="bold" font-family="'Helvetica Neue', Helvetica, Arial-Unicode, Arial, Sans-serif">Created by Creative Mania</text><text x="-449" y="571" fill="#000000" font-size="5px" font-weight="bold" font-family="'Helvetica Neue', Helvetica, Arial-Unicode, Arial, Sans-serif">from the Noun Project</text></svg>