<?xml version="1.0" encoding="iso-8859-1"?>
<!-- Generator: Adobe Illustrator 19.0.0, SVG Export Plug-In . SVG Version: 6.00 Build 0)  -->
<svg version="1.1" id="Layer_1" xmlns="http://www.w3.org/2000/svg" xmlns:xlink="http://www.w3.org/1999/xlink" x="0px" y="0px"
	 viewBox="0 0 489.844 489.844" style="enable-background:new 0 0 489.844 489.844;" xml:space="preserve">
<g id="XMLID_1418_">
	<g id="XMLID_473_">
		<rect x="22.817" y="137.698" style="fill:#E0D6C6;" width="444.209" height="206.787"/>
	</g>
	<g id="XMLID_476_">
		<rect x="22.817" y="137.698" style="fill:#CBBBA0;" width="160.834" height="206.787"/>
	</g>
	<g id="XMLID_479_">
		<rect x="122.382" y="175.992" style="fill:#FFFFFF;" width="245.081" height="137.858"/>
	</g>
	<g id="XMLID_477_">
		<rect x="153.017" y="214.286" style="fill:#D60B52;" width="68.929" height="61.27"/>
	</g>
	<g id="XMLID_478_">
		<rect x="153.017" y="214.286" style="fill:#A1083E;" width="38.294" height="61.27"/>
	</g>
	<g id="XMLID_472_">
		<rect x="22.817" y="91.745" style="fill:#D60B52;" width="444.209" height="45.953"/>
	</g>
	<g id="XMLID_475_">
		<rect x="22.817" y="91.745" style="fill:#A1083E;" width="122.54" height="45.953"/>
	</g>
	<g id="XMLID_21_">
		<rect x="7.5" y="352.144" style="fill:#D60B52;" width="474.844" height="45.953"/>
	</g>
	<g id="XMLID_474_">
		<rect x="7.5" y="352.144" style="fill:#A1083E;" width="137.858" height="45.953"/>
	</g>
	<path style="fill:#1D1D1B;" d="M474.526,343.956V84.246H15.317v260.398H0v60.953h489.844v-61.64h-15.318V343.956z M30.317,99.246
		h429.209v245.398H30.317V99.246z M474.844,390.596H15v-30.953h0.317h7.5h451.709v-0.687h0.317v31.64H474.844z"/>
	<g id="XMLID_325_">
		<rect x="214.287" y="367.62" style="fill:#1D1D1B;" width="61.271" height="15"/>
	</g>
	<g id="XMLID_330_">
		<rect x="229.605" y="107.222" style="fill:#1D1D1B;" width="30.635" height="15"/>
	</g>
	<g id="XMLID_326_">
		<rect x="30.476" y="367.62" style="fill:#FFFFFF;" width="15.318" height="15"/>
	</g>
	<g id="XMLID_327_">
		<rect x="61.111" y="367.62" style="fill:#FFFFFF;" width="15.317" height="15"/>
	</g>
	<g id="XMLID_328_">
		<rect x="91.747" y="367.62" style="fill:#FFFFFF;" width="15.317" height="15"/>
	</g>
	<g id="XMLID_329_">
		<rect x="38.135" y="130.198" style="fill:#1D1D1B;" width="413.573" height="15"/>
	</g>
	<g id="XMLID_323_">
		<path style="fill:#1D1D1B;" d="M374.962,321.35H114.881V168.492h260.081L374.962,321.35L374.962,321.35z M129.881,306.35h230.081
			V183.492H129.881V306.35z"/>
	</g>
	<g id="XMLID_358_">
		<rect x="244.922" y="206.786" style="fill:#1D1D1B;" width="76.588" height="15"/>
	</g>
	<g id="XMLID_359_">
		<rect x="244.922" y="237.421" style="fill:#1D1D1B;" width="22.976" height="15"/>
	</g>
	<g id="XMLID_360_">
		<rect x="244.922" y="268.056" style="fill:#1D1D1B;" width="99.564" height="15"/>
	</g>
	<g id="XMLID_28_">
		<path style="fill:#1D1D1B;" d="M229.446,283.056h-83.929v-76.271h83.929V283.056z M160.517,268.056h53.929v-46.271h-53.929
			V268.056z"/>
	</g>
	<g id="XMLID_20_">
		<polygon style="fill:#1D1D1B;" points="405.597,283.215 390.597,283.215 390.597,252.738 421.074,252.738 421.074,267.738 
			405.597,267.738 		"/>
	</g>
</g>
<g>
</g>
<g>
</g>
<g>
</g>
<g>
</g>
<g>
</g>
<g>
</g>
<g>
</g>
<g>
</g>
<g>
</g>
<g>
</g>
<g>
</g>
<g>
</g>
<g>
</g>
<g>
</g>
<g>
</g>
</svg>
